<svg width="386" height="272" viewBox="0 0 386 272" fill="none" xmlns="http://www.w3.org/2000/svg">
<g clip-path="url(#clip0_168_987)">
<path opacity="0.1" d="M4.15625 130.407C10.2514 152.91 23.1436 172.363 43.517 181.793C85.871 201.39 181.39 191.283 252.68 179.681C289.556 173.681 321.969 157.121 345.514 133.816L4.15625 130.407Z" fill="#F97D7D" fill-opacity="0.96"/>
<path opacity="0.1" d="M377.992 24.4816H338.877C337.02 24.4816 335.497 23.1675 335.497 21.5618C335.497 19.9561 337.02 18.6387 338.877 18.6387H345.642C343.782 18.6387 342.263 17.3246 342.263 15.7156C342.263 14.1065 343.782 12.7958 345.642 12.7958H340.814C338.954 12.7958 337.431 11.4818 337.431 9.87271C337.431 8.26366 338.954 6.95295 340.814 6.95295H361.229C356.699 5.13272 351.404 3.83877 345.302 3.15828C289.631 -3.01981 269.756 1.06651 262.745 5.2668C254.006 10.5674 244.299 14.2454 234.132 16.1078C199.786 22.2322 135.553 29.6003 77.3348 13.7612C48.3994 5.87355 26.8926 19.1851 14.0039 41.4369H384.785C384.301 34.9706 382.852 28.997 380.192 23.7709C379.562 24.2355 378.787 24.4857 377.992 24.4816Z" fill="#FF7058"/>
<path opacity="0.1" d="M0.837882 83.4355C-0.664523 96.5231 -0.153811 109.75 2.35378 122.696L345.775 133.554C355.229 124.188 363.261 113.601 369.637 102.104L0.837882 83.4355ZM136.665 111.443H129.903C131.763 111.443 133.286 112.761 133.286 114.366C133.286 115.972 131.763 117.286 129.903 117.286H90.7883C88.932 117.286 87.4091 115.972 87.4091 114.366C87.4091 112.761 88.932 111.443 90.7883 111.443H97.5537C95.6939 111.443 94.1745 110.129 94.1745 108.523C94.1745 106.918 95.6939 105.6 97.5537 105.6H92.7218C90.862 105.6 89.3391 104.286 89.3391 102.68C89.3391 101.075 90.862 99.7574 92.7218 99.7574H131.837C133.697 99.7574 135.216 101.071 135.216 102.68C135.216 104.29 133.697 105.6 131.837 105.6H136.665C138.525 105.6 140.044 106.914 140.044 108.523C140.044 110.132 138.525 111.443 136.665 111.443Z" fill="#FF914D"/>
<path opacity="0.1" d="M384.799 41.6377L9.86632 49.5153C5.30458 59.649 2.2798 71.1068 0.886719 82.9802H378.23C380.686 76.0336 382.508 68.897 383.676 61.6503C384.802 54.6744 385.251 47.9264 384.799 41.6377ZM77.0115 67.4663H70.2496C72.1094 67.4663 73.6323 68.7837 73.6323 70.3894C73.6323 71.9951 72.1094 73.3125 70.2496 73.3125H31.1345C29.2782 73.3125 27.7553 71.9951 27.7553 70.3894C27.7553 68.7837 29.2782 67.4663 31.1345 67.4663H37.8999C36.0401 67.4663 34.5207 66.1523 34.5207 64.5466C34.5207 62.9409 36.0401 61.6234 37.8999 61.6234H33.068C31.2082 61.6234 29.6853 60.3094 29.6853 58.7037C29.6853 57.098 31.2082 55.7806 33.068 55.7806H72.1831C74.0429 55.7806 75.5623 57.0946 75.5623 58.7037C75.5623 60.3127 74.0429 61.6234 72.1831 61.6234H77.0115C78.8713 61.6234 80.3907 62.9409 80.3907 64.5466C80.3907 66.1523 78.8713 67.4663 77.0115 67.4663Z" fill="#FF6F56"/>
<path opacity="0.1" d="M191.268 261.833C277.892 261.833 348.115 255.662 348.115 248.049C348.115 240.436 277.892 234.265 191.268 234.265C104.644 234.265 34.4219 240.436 34.4219 248.049C34.4219 255.662 104.644 261.833 191.268 261.833Z" fill="#FF6F56"/>
<g opacity="0.1">
<path opacity="0.1" d="M296.418 95.2555C296.49 95.1244 296.554 94.9889 296.607 94.8499C297.004 93.7973 296.828 92.6408 296.832 91.5211C296.832 91.1477 296.868 90.7751 296.941 90.4082C296.617 91.0706 296.46 91.796 296.481 92.5268C296.478 93.4285 296.59 94.3739 296.418 95.2555Z" fill="#44576D"/>
<path opacity="0.1" d="M339.679 145.883C338.223 146.919 336.065 146.648 334.594 145.625C333.124 144.603 332.229 142.997 331.608 141.365C330.833 139.387 330.257 137.154 328.489 135.884C327.854 135.428 327.085 135.129 326.464 134.674C325.06 133.648 324.359 131.955 323.853 130.333C323.204 128.288 322.692 126.186 321.748 124.255C320.804 122.324 319.323 120.527 317.281 119.646C315.372 118.824 313.168 118.878 311.193 118.211C307.789 117.065 305.273 114.333 301.894 113.045C300.812 112.61 299.786 112.056 298.837 111.396C297.174 110.3 296.732 109.68 296.486 107.745C296.135 104.842 293.048 102.312 293.528 99.5762C293.45 99.7242 293.381 99.8764 293.321 100.032C292.269 102.982 295.778 105.654 296.128 108.748C296.357 110.682 296.83 111.302 298.48 112.398C299.428 113.059 300.454 113.612 301.536 114.048C304.915 115.335 307.431 118.07 310.835 119.213C312.81 119.884 315.014 119.827 316.923 120.648C318.965 121.53 320.432 123.33 321.39 125.257C322.348 127.185 322.86 129.28 323.495 131.335C324.011 132.957 324.688 134.65 326.106 135.676C326.741 136.132 327.51 136.43 328.131 136.886C329.885 138.157 330.475 140.389 331.25 142.367C331.889 143.993 332.784 145.602 334.254 146.621C335.724 147.64 337.882 147.915 339.339 146.879C340.269 146.208 340.742 145.186 341.055 144.09C340.777 144.797 340.301 145.417 339.679 145.883V145.883Z" fill="#44576D"/>
<path opacity="0.1" d="M346.889 135.83C346.754 136.071 346.696 136.343 346.72 136.615C347.513 135.867 349.303 136.307 349.927 135.344C350.073 135.107 350.129 134.829 350.089 134.557C349.275 135.294 347.485 134.855 346.889 135.83Z" fill="#44576D"/>
<path opacity="0.1" d="M341.737 141.563C341.67 141.898 341.604 142.257 341.52 142.606C343.667 143.246 346.148 141.6 346.499 139.521C345.646 141.12 343.541 142.19 341.737 141.563Z" fill="#44576D"/>
</g>
<path d="M283.265 126.069L281.977 127.578C281.977 127.578 282.097 134.058 281.1 135.623C280.103 137.189 283.851 146.35 285.255 145.79C286.658 145.23 289.816 130.93 289.816 130.762C289.816 130.595 283.265 126.069 283.265 126.069Z" fill="#575A89"/>
<path d="M283.151 135.288C283.151 135.288 279.056 139.254 279.347 141.154C279.638 143.055 283.558 149.025 289.172 145.817C289.172 145.817 294.38 136.461 283.151 135.288Z" fill="#575A89"/>
<path opacity="0.1" d="M299.915 254.079C298.894 254.116 293.09 254.079 293.09 254.079C293.005 253.994 292.926 253.904 292.852 253.811C294.336 253.328 297.543 252.604 299.915 254.079Z" fill="#44576D"/>
<path opacity="0.1" d="M316.517 254.079C315.496 254.116 309.692 254.079 309.692 254.079C309.607 253.994 309.527 253.904 309.453 253.811C310.93 253.328 314.138 252.604 316.517 254.079Z" fill="#44576D"/>
<path opacity="0.1" d="M295.255 151.164C295.23 151.281 294.806 153.065 294.16 155.817C294.413 153.467 294.764 151.781 295.255 151.164Z" fill="#44576D"/>
<path opacity="0.1" d="M290.11 118.638C290.11 118.638 290.52 121.769 289.117 122.55C287.713 123.331 290.11 118.638 290.11 118.638Z" fill="#44576D"/>
<path opacity="0.1" d="M319.875 142.887C319.875 142.887 323.209 138.194 323.679 139.535C324.149 140.876 319.875 142.887 319.875 142.887Z" fill="#44576D"/>
<path opacity="0.1" d="M320.109 144.45C320.109 144.45 323.397 140.595 323.713 142.103C324.029 143.611 320.109 144.45 320.109 144.45Z" fill="#44576D"/>
<path opacity="0.1" d="M309.41 117.843C309.41 117.843 314.347 118.144 314.379 118.815C314.411 119.485 309.41 117.843 309.41 117.843Z" fill="#44576D"/>
<path opacity="0.1" d="M297.418 114.983C297.418 114.983 292.481 115.285 292.449 115.956C292.418 116.626 297.418 114.983 297.418 114.983Z" fill="#44576D"/>
<path opacity="0.1" d="M316.288 128.69C316.238 128.657 316.189 128.63 316.14 128.6C317.403 129.686 317.193 132.059 315.642 134.017C314.091 135.974 311.736 136.789 310.305 135.911C310.35 135.948 310.389 135.988 310.438 136.025C311.842 137.05 314.298 136.246 315.919 134.221C317.54 132.196 317.698 129.719 316.288 128.69Z" fill="#44576D"/>
<path opacity="0.1" d="M289.164 133.766C287.915 131.613 288.076 129.237 289.49 128.335C289.438 128.358 289.382 128.379 289.329 128.405C287.778 129.23 287.574 131.701 288.859 133.926C290.143 136.152 292.459 137.279 294.01 136.467C294.061 136.439 294.11 136.408 294.157 136.374C292.61 137.044 290.413 135.918 289.164 133.766Z" fill="#44576D"/>
<path opacity="0.1" d="M290.834 115.617L290.381 116.288L289.227 115.701L289.834 114.81C290.235 114.991 290.58 115.269 290.834 115.617V115.617Z" fill="#44576D"/>
<path d="M283.502 140.426C283.502 140.426 284.53 135.807 283.151 134.339C281.772 132.871 282.214 125.174 284.32 125.342C286.425 125.509 289.583 131.597 289.057 132.884C288.531 134.171 286.541 140.762 286.541 140.762L283.502 140.426Z" fill="#FBBEBE"/>
<path d="M285.057 144.091C286.801 144.091 288.215 143.175 288.215 142.046C288.215 140.916 286.801 140.001 285.057 140.001C283.312 140.001 281.898 140.916 281.898 142.046C281.898 143.175 283.312 144.091 285.057 144.091Z" fill="#575A89"/>
<path d="M182.117 255.869C241.904 255.869 290.37 209.569 290.37 152.454C290.37 95.3396 241.904 49.0391 182.117 49.0391C122.33 49.0391 73.8633 95.3396 73.8633 152.454C73.8633 209.569 122.33 255.869 182.117 255.869Z" fill="#FF593D" fill-opacity="0.86"/>
<path d="M238.914 204.423C238.914 220.748 212.049 205.817 183.247 205.817C154.444 205.817 125.312 220.131 125.312 203.806C125.312 194.497 134.597 181.551 147.918 172.148C157.953 165.062 170.277 159.986 182.657 159.986C195.388 159.986 207.859 165.481 217.807 173.023C230.362 182.533 238.914 195.312 238.914 204.423Z" fill="#44576D"/>
<path d="M217.804 173.016C202.494 170.814 174.804 168.129 147.918 172.141C157.954 165.055 170.277 159.979 182.657 159.979C195.385 159.979 207.856 165.474 217.804 173.016Z" fill="#F6F8FB"/>
<path opacity="0.05" d="M125.313 79.4531C125.313 79.4531 92.7037 99.3685 92.9704 130.52C93.2371 161.672 125.313 79.4531 125.313 79.4531Z" fill="#44576D"/>
<path d="M290.328 23.2075C290.328 23.2075 260.782 21.5079 264.266 41.2858C264.266 41.2858 263.564 44.7788 266.891 46.3677C266.891 46.3677 266.943 44.9028 269.919 45.3989C270.98 45.5684 272.057 45.6179 273.13 45.5464C274.579 45.4523 275.957 44.9085 277.053 43.9977V43.9977C277.053 43.9977 285.359 40.7226 288.591 27.753C288.591 27.753 290.98 24.9238 290.886 24.1997L285.899 26.2311C285.899 26.2311 287.601 29.6671 286.25 32.5232C286.25 32.5232 286.089 26.3585 285.131 26.4892C284.938 26.5194 282.541 27.6793 282.541 27.6793C282.541 27.6793 285.471 33.6663 283.243 38.0141C283.243 38.0141 284.082 30.6393 281.608 28.1117L278.099 30.0694C278.099 30.0694 281.523 36.2508 279.201 41.2959C279.201 41.2959 279.797 33.559 277.362 30.5454L274.179 32.9154C274.179 32.9154 277.397 39.0097 275.435 43.1932C275.435 43.1932 275.179 34.1859 273.491 33.5054C273.491 33.5054 270.709 35.8519 270.284 36.814C270.284 36.814 272.488 41.2355 271.123 43.5686C271.123 43.5686 270.284 37.5682 269.596 37.5347C269.596 37.5347 266.824 41.5104 266.533 44.2391C266.533 44.2391 266.656 40.1829 268.923 37.1559C268.923 37.1559 266.242 37.595 264.68 39.2577C264.68 39.2577 265.112 36.4452 269.593 36.2005C269.593 36.2005 271.884 33.1836 272.498 33.0026C272.498 33.0026 268.024 32.6439 265.312 33.7937C265.312 33.7937 267.698 31.1421 273.316 32.3455L276.474 29.8984C276.474 29.8984 270.586 29.1274 268.087 29.9789C268.087 29.9789 270.961 27.6323 277.32 29.342L280.741 27.3876C280.741 27.3876 275.72 26.3552 272.726 26.7172C272.726 26.7172 275.884 25.0914 281.741 26.8546L284.197 25.8054C284.197 25.8054 280.516 25.1149 279.439 25.0076C278.362 24.9003 278.306 24.612 278.306 24.612C280.643 24.2489 283.041 24.5147 285.229 25.3797C285.229 25.3797 290.415 23.5192 290.328 23.2075Z" fill="#F99B7D" fill-opacity="0.96"/>
<path d="M260.024 14.4142C260.024 14.4142 246.69 13.6432 248.248 22.5801C248.248 22.5801 247.935 24.159 249.434 24.8763C249.434 24.8763 249.455 24.2059 250.802 24.4406C251.281 24.5158 251.767 24.5383 252.251 24.5076C252.907 24.4629 253.53 24.2172 254.027 23.807V23.807C254.027 23.807 257.778 22.3253 259.238 16.4657C259.238 16.4657 260.319 15.1885 260.291 14.86L258.038 15.7785C258.038 15.7785 258.81 17.3306 258.203 18.6212C258.203 18.6212 258.129 15.8355 257.697 15.9025C257.61 15.9025 256.525 16.4389 256.525 16.4389C256.525 16.4389 257.852 19.1441 256.852 21.1085C256.852 21.1085 257.231 17.7764 256.115 16.6333L254.529 17.5183C254.529 17.5183 256.076 20.314 255.027 22.5935C255.027 22.5935 255.294 19.0972 254.195 17.7362L252.757 18.8055C252.757 18.8055 254.21 21.5577 253.325 23.4483C253.325 23.4483 253.209 19.3787 252.445 19.0703C252.445 19.0703 251.188 20.1296 250.995 20.5654C250.995 20.5654 251.992 22.5767 251.374 23.6193C251.374 23.6193 250.995 20.9073 250.672 20.8973C250.672 20.8973 249.42 22.6907 249.29 23.9143C249.35 22.7756 249.722 21.6719 250.367 20.7129C249.645 20.8434 248.979 21.1732 248.451 21.6616C248.451 21.6616 248.644 20.3911 250.676 20.2805C250.676 20.2805 251.711 18.9195 251.988 18.8357C251.988 18.8357 249.967 18.6748 248.742 19.1944C248.742 19.1944 249.82 17.9943 252.36 18.5239L253.764 17.4211C253.764 17.4211 251.104 17.0859 249.974 17.4546C249.974 17.4546 251.272 16.3953 254.146 17.1697L255.69 16.2847C255.69 16.2847 253.424 15.8187 252.069 15.9863C252.069 15.9863 253.497 15.2522 256.143 16.05L257.248 15.574C257.248 15.574 255.585 15.2623 255.101 15.2153C254.617 15.1684 254.585 15.0377 254.585 15.0377C255.638 14.8703 256.72 14.9863 257.708 15.3729C257.708 15.3729 260.063 14.5549 260.024 14.4142Z" fill="#F99B7D" fill-opacity="0.96"/>
<path opacity="0.1" d="M376.551 244.714C381.77 244.714 386.001 244.031 386.001 243.188C386.001 242.346 381.77 241.663 376.551 241.663C371.332 241.663 367.102 242.346 367.102 243.188C367.102 244.031 371.332 244.714 376.551 244.714Z" fill="#F99B7D" fill-opacity="0.96"/>
<path opacity="0.1" d="M16.4107 270.086C21.6297 270.086 25.8606 269.403 25.8606 268.56C25.8606 267.718 21.6297 267.035 16.4107 267.035C11.1918 267.035 6.96094 267.718 6.96094 268.56C6.96094 269.403 11.1918 270.086 16.4107 270.086Z" fill="#F99B7D" fill-opacity="0.96"/>
<path opacity="0.1" d="M71.2701 272C76.4891 272 80.7199 271.317 80.7199 270.474C80.7199 269.632 76.4891 268.949 71.2701 268.949C66.0511 268.949 61.8203 269.632 61.8203 270.474C61.8203 271.317 66.0511 272 71.2701 272Z" fill="#F99B7D" fill-opacity="0.96"/>
<path d="M355.868 261.813C363.66 261.813 369.977 260.792 369.977 259.533C369.977 258.274 363.66 257.254 355.868 257.254C348.075 257.254 341.758 258.274 341.758 259.533C341.758 260.792 348.075 261.813 355.868 261.813Z" fill="#F99B7D" fill-opacity="0.96"/>
<path d="M361.701 255.809C362.345 255.306 362.814 254.63 363.048 253.868C363.22 253.1 362.876 252.175 362.108 251.893C361.244 251.578 360.321 252.151 359.623 252.728C358.925 253.305 358.121 253.962 357.205 253.841C357.676 253.433 358.029 252.916 358.228 252.34C358.427 251.764 358.467 251.148 358.342 250.552C358.302 250.306 358.193 250.074 358.027 249.882C357.546 249.392 356.679 249.6 356.104 249.986C354.279 251.213 353.77 253.579 353.76 255.711C353.577 254.944 353.731 254.143 353.728 253.365C353.724 252.587 353.496 251.689 352.802 251.276C352.37 251.056 351.887 250.948 351.398 250.961C350.577 250.931 349.664 251.008 349.103 251.581C348.401 252.295 348.587 253.489 349.194 254.263C349.801 255.038 350.721 255.54 351.566 256.08C352.247 256.467 352.827 256.995 353.265 257.625C353.316 257.714 353.358 257.807 353.391 257.904H358.532C359.682 257.345 360.748 256.64 361.701 255.809V255.809Z" fill="#F99B7D" fill-opacity="0.96"/>
<path d="M20.8221 227.701C20.8221 227.701 22.7486 230.108 19.9308 233.735C17.1131 237.362 14.7901 240.44 15.72 242.706C15.72 242.706 19.9694 235.954 23.4398 235.857C26.9103 235.76 24.6259 231.761 20.8221 227.701Z" fill="#F99B7D" fill-opacity="0.96"/>
<path opacity="0.1" d="M20.8219 227.701C20.9892 227.934 21.1215 228.188 21.2149 228.455C24.5906 232.243 26.3872 235.78 23.1449 235.867C20.1201 235.951 16.4777 241.113 15.625 242.417C15.6548 242.518 15.6899 242.618 15.7303 242.716C15.7303 242.716 19.9797 235.964 23.4501 235.867C26.9206 235.77 24.6257 231.761 20.8219 227.701Z" fill="#44576D"/>
<path d="M24.4066 230.768C24.4066 231.616 24.3048 232.303 24.182 232.303C24.0592 232.303 23.9609 231.633 23.9609 230.768C23.9609 229.903 24.0838 230.319 24.2101 230.319C24.3364 230.319 24.4066 229.92 24.4066 230.768Z" fill="#FFD037"/>
<path d="M25.6177 231.781C24.8387 232.186 24.1615 232.431 24.1018 232.327C24.0422 232.223 24.6282 231.814 25.4072 231.409C26.1862 231.003 25.8774 231.298 25.9371 231.409C25.9967 231.519 26.4108 231.375 25.6177 231.781Z" fill="#FFD037"/>
<path d="M10.6391 227.701C10.6391 227.701 8.7126 230.108 11.5268 233.735C14.3411 237.362 16.6676 240.44 15.7377 242.706C15.7377 242.706 11.4847 235.954 8.01781 235.857C4.55089 235.76 6.83176 231.761 10.6391 227.701Z" fill="#F99B7D" fill-opacity="0.96"/>
<path opacity="0.1" d="M10.6402 227.701C10.4714 227.933 10.339 228.187 10.2472 228.455C6.87154 232.243 5.07141 235.78 8.31726 235.867C11.3385 235.951 14.9844 241.113 15.8336 242.417C15.805 242.518 15.771 242.618 15.7318 242.716C15.7318 242.716 11.4789 235.964 8.01197 235.867C4.54505 235.77 6.83294 231.761 10.6402 227.701Z" fill="#44576D"/>
<path d="M7.05859 230.768C7.05859 231.616 7.15685 232.303 7.27966 232.303C7.40248 232.303 7.50073 231.633 7.50073 230.768C7.50073 229.903 7.37792 230.319 7.2551 230.319C7.13229 230.319 7.05859 229.92 7.05859 230.768Z" fill="#FFD037"/>
<path d="M5.82355 231.781C6.60256 232.186 7.28331 232.431 7.34296 232.327C7.40262 232.223 6.81661 231.814 6.0376 231.409C5.2586 231.003 5.56389 231.298 5.50774 231.409C5.4516 231.519 5.04455 231.375 5.82355 231.781Z" fill="#FFD037"/>
<path d="M7.67188 242.401C7.67188 242.401 13.0617 242.243 14.6899 241.137C16.3181 240.031 22.9818 238.713 23.3853 240.466C23.7888 242.22 31.4841 249.283 25.3995 249.33C19.3148 249.377 11.2616 248.421 9.64044 247.479C8.01927 246.537 7.67188 242.401 7.67188 242.401Z" fill="#A8A8A8"/>
<path opacity="0.2" d="M25.5012 248.729C19.4166 248.776 11.3634 247.821 9.7422 246.879C8.50702 246.161 8.01576 243.584 7.85084 242.394H7.67188C7.67188 242.394 8.02278 246.547 9.63342 247.489C11.2441 248.431 19.3078 249.386 25.3925 249.339C27.147 249.339 27.754 248.726 27.7225 247.844C27.4768 248.384 26.8101 248.719 25.5012 248.729Z" fill="#44576D"/>
<path d="M143.627 138.895C145.687 138.784 155.382 138.087 161.54 134.731C162.529 134.176 163.647 133.861 164.793 133.816C166.751 133.763 169.004 134.544 167.562 138.915C165.225 146.065 151.655 154.11 143.234 153.665C135.135 153.236 125.527 150.118 119.183 139.156C118.575 138.102 118.276 136.91 118.316 135.707C118.39 133.495 119.232 130.722 123.58 133.813C129.454 137.986 140.598 138.778 142.834 138.895C143.098 138.908 143.363 138.908 143.627 138.895V138.895Z" fill="#444053"/>
<path d="M221.529 138.895C223.589 138.784 233.284 138.087 239.443 134.731C240.432 134.176 241.549 133.861 242.696 133.816C244.654 133.763 246.906 134.544 245.464 138.915C243.127 146.065 229.558 154.11 221.136 153.665C213.037 153.236 203.43 150.118 197.085 139.156C196.477 138.102 196.178 136.91 196.218 135.707C196.292 133.495 197.134 130.722 201.482 133.813C207.356 137.986 218.501 138.778 220.736 138.895C221 138.908 221.265 138.908 221.529 138.895V138.895Z" fill="#444053"/>
</g>
<defs>
<clipPath id="clip0_168_987">
<rect width="386" height="272" fill="white"/>
</clipPath>
</defs>
</svg>
